<svg xmlns="http://www.w3.org/2000/svg" width="400" height="380" viewBox="0 0 400 380">
  <rect width="400" height="380" fill="#fff" stroke="#ddd" stroke-width="1"/>
  <!-- ヘッダー -->
  <rect width="400" height="60" fill="#003087"/>
  <text x="200" y="28" font-family="sans-serif" font-size="14" font-weight="bold" fill="white" text-anchor="middle">三菱UFJ銀行</text>
  <text x="200" y="48" font-family="sans-serif" font-size="11" fill="#a0c4ff" text-anchor="middle">MUFG Bank, Ltd.</text>
  <!-- タイトル -->
  <text x="200" y="90" font-family="sans-serif" font-size="18" font-weight="bold" fill="#003087" text-anchor="middle">振　込　証　明　書</text>
  <line x1="30" y1="100" x2="370" y2="100" stroke="#003087" stroke-width="1.5"/>
  <!-- 内容 -->
  <text x="40" y="128" font-family="sans-serif" font-size="11" fill="#888">取引日時</text>
  <text x="200" y="128" font-family="sans-serif" font-size="12" fill="#222">2026年5月7日　14:23</text>
  <line x1="30" y1="138" x2="370" y2="138" stroke="#eee" stroke-width="0.8"/>
  <text x="40" y="162" font-family="sans-serif" font-size="11" fill="#888">振込元</text>
  <text x="200" y="162" font-family="sans-serif" font-size="12" fill="#222">株式会社サンプル商事</text>
  <line x1="30" y1="172" x2="370" y2="172" stroke="#eee" stroke-width="0.8"/>
  <text x="40" y="196" font-family="sans-serif" font-size="11" fill="#888">振込先銀行</text>
  <text x="200" y="196" font-family="sans-serif" font-size="12" fill="#222">三菱UFJ銀行　渋谷支店</text>
  <line x1="30" y1="206" x2="370" y2="206" stroke="#eee" stroke-width="0.8"/>
  <text x="40" y="230" font-family="sans-serif" font-size="11" fill="#888">振込先口座</text>
  <text x="200" y="230" font-family="sans-serif" font-size="12" fill="#222">普通　1234567</text>
  <line x1="30" y1="240" x2="370" y2="240" stroke="#eee" stroke-width="0.8"/>
  <text x="40" y="264" font-family="sans-serif" font-size="11" fill="#888">受取人名</text>
  <text x="200" y="264" font-family="sans-serif" font-size="12" fill="#222">クリエイティブスタジオ（ド</text>
  <line x1="30" y1="274" x2="370" y2="274" stroke="#eee" stroke-width="0.8"/>
  <!-- 金額（強調） -->
  <rect x="30" y="286" width="340" height="48" fill="#eef2ff" rx="4"/>
  <text x="70" y="316" font-family="sans-serif" font-size="13" fill="#555">振込金額</text>
  <text x="360" y="318" font-family="sans-serif" font-size="22" font-weight="bold" fill="#003087" text-anchor="end">¥110,000</text>
  <!-- 受付番号 -->
  <text x="200" y="352" font-family="sans-serif" font-size="10" fill="#aaa" text-anchor="middle">受付番号：MUFG-20260507-8842619　　この証明書を大切に保管してください</text>
  <!-- フッター -->
  <rect y="362" width="400" height="18" fill="#003087"/>
  <text x="200" y="375" font-family="sans-serif" font-size="9" fill="#a0c4ff" text-anchor="middle">インターネットバンキング　取引明細</text>
</svg>
