<svg xmlns="http://www.w3.org/2000/svg" viewBox="0 0 100 100">
  <!-- 青背景 -->
  <rect width="100" height="100" rx="18" fill="#0d6efd"/>

  <!-- receipt-cutoff アイコン（白・やや左上寄せでバッジとかぶらないように） -->
  <g transform="translate(8, 4) scale(4.2) rotate(180, 8, 8)" fill="white">
    <path d="M3 4.5a.5.5 0 0 1 .5-.5h6a.5.5 0 1 1 0 1h-6a.5.5 0 0 1-.5-.5m0 2a.5.5 0 0 1 .5-.5h6a.5.5 0 1 1 0 1h-6a.5.5 0 0 1-.5-.5m0 2a.5.5 0 0 1 .5-.5h6a.5.5 0 1 1 0 1h-6a.5.5 0 0 1-.5-.5m0 2a.5.5 0 0 1 .5-.5h6a.5.5 0 0 1 0 1h-6a.5.5 0 0 1-.5-.5m0 2a.5.5 0 0 1 .5-.5h6a.5.5 0 0 1 0 1h-6a.5.5 0 0 1-.5-.5M11.5 4a.5.5 0 0 0 0 1h1a.5.5 0 0 0 0-1zm0 2a.5.5 0 0 0 0 1h1a.5.5 0 0 0 0-1zm0 2a.5.5 0 0 0 0 1h1a.5.5 0 0 0 0-1zm0 2a.5.5 0 0 0 0 1h1a.5.5 0 0 0 0-1zm0 2a.5.5 0 0 0 0 1h1a.5.5 0 0 0 0-1z"/>
    <path d="M2.354.646a.5.5 0 0 0-.801.13l-.5 1A.5.5 0 0 0 1 2v13H.5a.5.5 0 0 0 0 1h15a.5.5 0 0 0 0-1H15V2a.5.5 0 0 0-.053-.224l-.5-1a.5.5 0 0 0-.8-.13L13 1.293l-.646-.647a.5.5 0 0 0-.708 0L11 1.293l-.646-.647a.5.5 0 0 0-.708 0L9 1.293 8.354.646a.5.5 0 0 0-.708 0L7 1.293 6.354.646a.5.5 0 0 0-.708 0L5 1.293 4.354.646a.5.5 0 0 0-.708 0L3 1.293zm-.217 1.198.51.51a.5.5 0 0 0 .707 0L4 1.707l.646.647a.5.5 0 0 0 .708 0L6 1.707l.646.647a.5.5 0 0 0 .708 0L8 1.707l.646.647a.5.5 0 0 0 .708 0L10 1.707l.646.647a.5.5 0 0 0 .708 0L12 1.707l.646.647a.5.5 0 0 0 .708 0l.509-.51.137.274V15H2V2.118z"/>
  </g>

  <!-- 緑バッジ（右下） -->
  <circle cx="76" cy="76" r="22" fill="#198754"/>
  <!-- 白チェックマーク -->
  <polyline points="65,76 73,84 87,64"
    fill="none" stroke="white" stroke-width="5"
    stroke-linecap="round" stroke-linejoin="round"/>
</svg>
