<?xml version="1.0" encoding="UTF-8"?>
<svg version="1.1" xmlns="http://www.w3.org/2000/svg" viewBox="95 65 350 370" width="512" height="512">
<path d="M0,0 L251,0 L256,3 L257,5 L257,146 L245,145 L225,145 L208,148 L189,155 L174,164 L160,176 L150,188 L142,201 L136,215 L132,230 L130,247 L131,266 L135,282 L141,297 L150,312 L158,321 L156,325 L147,334 L142,340 L138,342 L132,341 L103,312 L100,312 L98,316 L93,320 L86,328 L84,328 L82,332 L78,334 L76,338 L70,342 L65,341 L57,334 L35,312 L28,318 L5,341 L-1,342 L-6,337 L-6,5 L-3,1 Z M44,48 L39,51 L36,57 L37,63 L42,68 L45,69 L206,69 L212,66 L214,63 L214,54 L209,49 L207,48 Z M45,99 L39,102 L36,107 L37,114 L41,119 L44,120 L130,120 L135,117 L137,114 L137,105 L132,100 L129,99 Z M136,150 L42,151 L37,156 L36,163 L39,168 L43,171 L143,171 L148,168 L150,165 L150,157 L145,151 Z " fill="#000000" transform="translate(112,85)"/>
<path d="M0,0 L22,0 L40,4 L52,9 L66,18 L78,29 L88,42 L96,58 L100,71 L102,82 L102,100 L99,116 L94,129 L86,143 L77,154 L66,164 L53,172 L42,177 L28,181 L21,182 L1,182 L-14,179 L-27,174 L-40,167 L-53,156 L-62,146 L-70,133 L-75,122 L-79,107 L-80,100 L-80,82 L-77,66 L-71,51 L-64,39 L-56,29 L-48,21 L-35,12 L-23,6 L-11,2 Z M51,50 L43,57 L30,70 L23,78 L1,100 L-4,105 L-27,82 L-32,80 L-38,81 L-43,85 L-44,87 L-44,96 L-37,104 L-21,121 L-10,132 L-7,133 L0,133 L8,126 L32,102 L32,100 L34,100 L41,92 L64,69 L67,62 L65,54 L60,50 Z " fill="#000000" transform="translate(336,244)"/>
</svg>
